<svg width="138" height="39" viewBox="0 0 138 39" fill="none" xmlns="http://www.w3.org/2000/svg">
<path d="M3.65569 30.8818L0.5 28.3211V37.2026C0.5 37.7549 0.947715 38.2026 1.5 38.2026H136.5C137.052 38.2026 137.5 37.7549 137.5 37.2026V5.23878L132.284 9.26768C131.859 9.59588 131.251 9.53 130.906 9.11844L126.074 3.34991C125.768 2.98416 125.246 2.8858 124.827 3.11501L123.962 3.58879C123.546 3.81649 123.028 3.72106 122.721 3.36027L120.583 0.851521C120.265 0.477638 119.722 0.390458 119.302 0.645814L117.47 1.76081C117.34 1.84012 117.193 1.88856 117.041 1.90243L108.694 2.66441C108.316 2.6989 107.99 2.9443 107.853 3.29797L103.817 13.6804C103.506 14.4806 102.398 14.5426 101.999 13.7822L98.2439 6.61407C98.0712 6.28459 97.73 6.07814 97.3581 6.07814H93.6918C93.2306 6.07814 92.8293 6.39352 92.7202 6.84162L91.253 12.8689C91.1439 13.317 90.7425 13.6324 90.2813 13.6324H88.0441C87.9153 13.6324 87.7876 13.6074 87.6682 13.559L84.5366 12.2885C84.0662 12.0976 83.5275 12.2895 83.2836 12.7347L79.2657 20.0704C78.9544 20.6387 78.193 20.7654 77.7144 20.3286L76.793 19.4874C76.3282 19.0631 75.5917 19.1684 75.2645 19.706L74.4141 21.1035C74.0336 21.7286 73.1325 21.7468 72.7272 21.1374L66.7776 12.1918C66.3434 11.5389 65.3609 11.617 65.0353 12.3304L63.8065 15.0224C63.6164 15.4389 63.1677 15.6731 62.7172 15.5909L59.6286 15.027C59.1891 14.9467 58.7496 15.1678 58.5521 15.5686L55.0023 22.7698C54.845 23.0888 54.5302 23.3003 54.1754 23.3252L49.2539 23.6708C48.9494 23.6922 48.6713 23.8515 48.4988 24.1034L45.2208 28.8912C44.7715 29.5475 43.7729 29.442 43.4707 28.7063L41.9822 25.0828C41.7121 24.4252 40.8614 24.2515 40.3552 24.7506L30.9018 34.0708C30.4183 34.5475 29.6106 34.4141 29.306 33.8074L25.6888 26.603C25.3336 25.8955 24.3361 25.8617 23.9338 26.5437L21.8354 30.1012C21.7142 30.3066 21.5236 30.462 21.298 30.5392L18.8608 31.3735C18.3603 31.5449 17.813 31.2967 17.6119 30.8074L15.4661 25.5837C15.312 25.2086 14.9466 24.9637 14.5411 24.9637H12.961C12.6418 24.9637 12.3417 24.8113 12.1534 24.5534L10.6786 22.534C10.2331 21.924 9.29817 22.0091 8.97021 22.6895L5.18661 30.5395C4.90636 31.1209 4.15689 31.2885 3.65569 30.8818Z" fill="url(#paint0_linear_612_1541)"/>
<path d="M0.5 28.3211L3.65569 30.8818C4.15689 31.2885 4.90637 31.1209 5.18661 30.5395L8.97021 22.6895C9.29817 22.0091 10.2331 21.924 10.6786 22.534L12.1534 24.5534C12.3417 24.8113 12.6418 24.9637 12.961 24.9637H14.5411C14.9466 24.9637 15.312 25.2086 15.4661 25.5837L17.6119 30.8074C17.813 31.2967 18.3603 31.5449 18.8608 31.3735L21.298 30.5392C21.5236 30.462 21.7142 30.3066 21.8354 30.1012L23.9338 26.5436C24.3361 25.8617 25.3336 25.8955 25.6888 26.603L29.306 33.8074C29.6106 34.4141 30.4183 34.5475 30.9018 34.0708L40.3552 24.7506C40.8614 24.2515 41.7121 24.4252 41.9822 25.0828L43.4707 28.7062C43.7729 29.442 44.7715 29.5475 45.2208 28.8912L48.4988 24.1034C48.6713 23.8515 48.9494 23.6922 49.2539 23.6708L54.1754 23.3252C54.5302 23.3003 54.845 23.0888 55.0023 22.7698L58.5521 15.5686C58.7496 15.1678 59.1891 14.9467 59.6286 15.027L62.7172 15.5909C63.1677 15.6731 63.6164 15.4389 63.8065 15.0224L65.0353 12.3304C65.3609 11.617 66.3434 11.5389 66.7776 12.1918L72.7272 21.1374C73.1325 21.7468 74.0336 21.7286 74.4141 21.1034L75.2645 19.706C75.5917 19.1684 76.3282 19.0631 76.793 19.4874L77.7144 20.3285C78.193 20.7654 78.9544 20.6387 79.2657 20.0704L83.2836 12.7347C83.5275 12.2895 84.0662 12.0976 84.5366 12.2884L87.6682 13.559C87.7876 13.6074 87.9152 13.6324 88.0441 13.6324H90.2813C90.7425 13.6324 91.1439 13.317 91.253 12.8689L92.7202 6.84161C92.8293 6.39352 93.2306 6.07814 93.6918 6.07814H97.3581C97.73 6.07814 98.0712 6.28459 98.2439 6.61407L101.999 13.7822C102.398 14.5426 103.506 14.4806 103.817 13.6804L107.853 3.29797C107.99 2.9443 108.316 2.6989 108.694 2.66441L117.041 1.90243C117.193 1.88856 117.34 1.84012 117.47 1.76081L119.302 0.645814C119.722 0.390458 120.265 0.477638 120.583 0.851521L122.721 3.36027C123.028 3.72106 123.546 3.81649 123.962 3.58879L124.827 3.11501C125.246 2.8858 125.768 2.98416 126.074 3.34991L130.906 9.11844C131.251 9.53 131.859 9.59588 132.284 9.26768L137.5 5.23878" stroke="#11CABE" stroke-linecap="round"/>
<defs>
<linearGradient id="paint0_linear_612_1541" x1="69" y1="0.202637" x2="69" y2="38.2026" gradientUnits="userSpaceOnUse">
<stop offset="0.260417" stop-color="#BCFBFF" stop-opacity="0.4"/>
<stop offset="1" stop-opacity="0"/>
</linearGradient>
</defs>
</svg>
